<svg xmlns="http://www.w3.org/2000/svg" xmlns:xlink="http://www.w3.org/1999/xlink" width="371" zoomAndPan="magnify" viewBox="0 0 278.25 78.749999" height="105" preserveAspectRatio="xMidYMid meet" version="1.2"><defs><clipPath id="fc6b1ee574"><path d="M 0.0664062 9.109375 L 59.027344 9.109375 L 59.027344 68.070312 L 0.0664062 68.070312 Z M 0.0664062 9.109375 "/></clipPath><clipPath id="0ab27d9d89"><path d="M 17.261719 9.109375 L 41.832031 9.109375 C 46.394531 9.109375 50.765625 10.921875 53.992188 14.144531 C 57.21875 17.371094 59.027344 21.746094 59.027344 26.304688 L 59.027344 50.875 C 59.027344 55.4375 57.21875 59.8125 53.992188 63.035156 C 50.765625 66.261719 46.394531 68.070312 41.832031 68.070312 L 17.261719 68.070312 C 12.703125 68.070312 8.328125 66.261719 5.101562 63.035156 C 1.878906 59.8125 0.0664062 55.4375 0.0664062 50.875 L 0.0664062 26.304688 C 0.0664062 21.746094 1.878906 17.371094 5.101562 14.144531 C 8.328125 10.921875 12.703125 9.109375 17.261719 9.109375 Z M 17.261719 9.109375 "/></clipPath><clipPath id="a81d2cfed7"><path d="M 8 18 L 51 18 L 51 59.539062 L 8 59.539062 Z M 8 18 "/></clipPath></defs><g id="3014855b6b"><g clip-rule="nonzero" clip-path="url(#fc6b1ee574)"><g clip-rule="nonzero" clip-path="url(#0ab27d9d89)"><path style=" stroke:none;fill-rule:nonzero;fill:#2b7fff;fill-opacity:1;" d="M 0.0664062 9.109375 L 59.027344 9.109375 L 59.027344 68.070312 L 0.0664062 68.070312 Z M 0.0664062 9.109375 "/></g></g><g clip-rule="nonzero" clip-path="url(#a81d2cfed7)"><path style=" stroke:none;fill-rule:nonzero;fill:#ffffff;fill-opacity:1;" d="M 24.050781 30.152344 C 25.726562 31.375 27.355469 30.695312 27.671875 28.644531 L 29.039062 19.765625 C 29.351562 17.714844 29.867188 17.714844 30.183594 19.765625 L 31.550781 28.644531 C 31.863281 30.695312 33.496094 31.371094 35.171875 30.152344 L 42.894531 24.539062 C 44.570312 23.316406 44.945312 23.691406 43.722656 25.367188 L 38.105469 33.089844 C 36.886719 34.769531 37.566406 36.394531 39.613281 36.710938 L 48.496094 38.078125 C 50.546875 38.394531 50.546875 38.910156 48.496094 39.222656 L 39.613281 40.589844 C 37.566406 40.90625 36.886719 42.535156 38.105469 44.210938 L 43.722656 51.933594 C 44.945312 53.609375 44.570312 53.984375 42.894531 52.765625 L 35.171875 47.148438 C 33.496094 45.929688 31.863281 46.605469 31.550781 48.65625 L 30.183594 57.535156 C 29.867188 59.585938 29.351562 59.585938 29.039062 57.535156 L 27.671875 48.65625 C 27.355469 46.605469 25.726562 45.929688 24.050781 47.148438 L 16.328125 52.765625 C 14.652344 53.984375 14.34375 53.660156 15.640625 52.042969 L 22.03125 44.101562 C 23.328125 42.484375 22.710938 40.929688 20.660156 40.648438 L 10.535156 39.25 C 8.484375 38.964844 8.480469 38.472656 10.527344 38.148438 L 19.605469 36.722656 C 21.65625 36.402344 22.332031 34.765625 21.113281 33.089844 L 15.496094 25.367188 C 14.277344 23.691406 14.652344 23.320312 16.328125 24.539062 Z M 24.050781 30.152344 "/></g><g style="fill:#ffffff;fill-opacity:1;"><g transform="translate(62.614957, 51.574533)"><path style="stroke:none" d="M 22.515625 -2.265625 C 20.773438 -0.523438 18.046875 0.34375 14.328125 0.34375 C 10.710938 0.34375 7.757812 -0.75 5.46875 -2.9375 C 3.144531 -5.164062 1.984375 -8.128906 1.984375 -11.828125 C 1.984375 -15.578125 3.128906 -18.660156 5.421875 -21.078125 C 7.847656 -23.609375 11.09375 -24.875 15.15625 -24.875 C 18.039062 -24.875 20.457031 -24.242188 22.40625 -22.984375 L 21.46875 -17 L 21.3125 -17.03125 C 20.5625 -17.9375 19.773438 -18.53125 18.953125 -18.8125 C 17.609375 -19.269531 16.265625 -19.5 14.921875 -19.5 C 13.585938 -19.5 12.535156 -19.328125 11.765625 -18.984375 C 11.003906 -18.648438 10.351562 -18.175781 9.8125 -17.5625 C 8.71875 -16.320312 8.171875 -14.671875 8.171875 -12.609375 C 8.171875 -8.972656 9.4375 -6.59375 11.96875 -5.46875 C 12.832031 -5.09375 13.75 -4.90625 14.71875 -4.90625 C 15.695312 -4.90625 16.546875 -4.988281 17.265625 -5.15625 C 17.992188 -5.332031 18.65625 -5.566406 19.25 -5.859375 C 20.507812 -6.484375 21.363281 -7.207031 21.8125 -8.03125 L 21.984375 -7.96875 Z M 22.515625 -2.265625 "/></g></g><g style="fill:#ffffff;fill-opacity:1;"><g transform="translate(86.579881, 51.574533)"><path style="stroke:none" d="M 1.65625 -12.078125 C 1.65625 -13.785156 1.945312 -15.421875 2.53125 -16.984375 C 3.113281 -18.554688 3.953125 -19.925781 5.046875 -21.09375 C 7.429688 -23.613281 10.523438 -24.875 14.328125 -24.875 C 18.109375 -24.875 21.113281 -23.6875 23.34375 -21.3125 C 25.46875 -19.03125 26.53125 -16.078125 26.53125 -12.453125 C 26.53125 -8.828125 25.4375 -5.820312 23.25 -3.4375 C 20.925781 -0.914062 17.847656 0.34375 14.015625 0.34375 C 10.054688 0.34375 6.957031 -0.890625 4.71875 -3.359375 C 2.675781 -5.617188 1.65625 -8.523438 1.65625 -12.078125 Z M 7.328125 -12.21875 C 7.328125 -11.238281 7.488281 -10.285156 7.8125 -9.359375 C 8.144531 -8.441406 8.617188 -7.660156 9.234375 -7.015625 C 10.523438 -5.585938 12.222656 -4.875 14.328125 -4.875 C 16.265625 -4.875 17.796875 -5.570312 18.921875 -6.96875 C 20.015625 -8.300781 20.5625 -10.039062 20.5625 -12.1875 C 20.5625 -14.375 20 -16.132812 18.875 -17.46875 C 17.675781 -18.90625 16.035156 -19.625 13.953125 -19.625 C 11.828125 -19.625 10.164062 -18.859375 8.96875 -17.328125 C 7.875 -15.929688 7.328125 -14.226562 7.328125 -12.21875 Z M 7.328125 -12.21875 "/></g></g><g style="fill:#ffffff;fill-opacity:1;"><g transform="translate(114.538964, 51.574533)"><path style="stroke:none" d="M 8.953125 -2.609375 C 8.953125 -1.273438 8.984375 -0.40625 9.046875 0 L 3.21875 0 L 3.21875 -24.40625 L 8.953125 -24.40625 L 8.953125 -22.609375 C 10.273438 -24.117188 11.660156 -24.875 13.109375 -24.875 C 14.566406 -24.875 15.71875 -24.695312 16.5625 -24.34375 L 16.140625 -18.0625 L 16.046875 -17.984375 C 15.503906 -18.953125 14.375 -19.4375 12.65625 -19.4375 C 12.007812 -19.4375 11.34375 -19.210938 10.65625 -18.765625 C 9.976562 -18.328125 9.410156 -17.738281 8.953125 -17 Z M 8.953125 -2.609375 "/></g></g><g style="fill:#ffffff;fill-opacity:1;"><g transform="translate(130.515579, 51.574533)"><path style="stroke:none" d="M 9.515625 -0.484375 L 9.515625 6.375 C 9.515625 7.71875 9.539062 8.59375 9.59375 9 L 3.78125 9 L 3.78125 -24.40625 L 9.515625 -24.40625 L 9.515625 -22.890625 C 11.390625 -24.210938 13.191406 -24.875 14.921875 -24.875 C 16.648438 -24.875 18.179688 -24.632812 19.515625 -24.15625 C 20.859375 -23.675781 22.039062 -22.925781 23.0625 -21.90625 C 25.28125 -19.71875 26.390625 -16.585938 26.390625 -12.515625 C 26.390625 -9.828125 25.757812 -7.421875 24.5 -5.296875 C 23.425781 -3.503906 21.941406 -2.070312 20.046875 -1 C 18.359375 -0.0507812 16.535156 0.421875 14.578125 0.421875 C 12.617188 0.421875 10.929688 0.117188 9.515625 -0.484375 Z M 9.515625 -6.375 C 10.691406 -5.375 12.222656 -4.875 14.109375 -4.875 C 17.191406 -4.875 19.1875 -6.363281 20.09375 -9.34375 C 20.40625 -10.351562 20.5625 -11.4375 20.5625 -12.59375 C 20.5625 -13.757812 20.453125 -14.6875 20.234375 -15.375 C 20.015625 -16.070312 19.726562 -16.671875 19.375 -17.171875 C 19.03125 -17.679688 18.640625 -18.101562 18.203125 -18.4375 C 17.765625 -18.78125 17.316406 -19.050781 16.859375 -19.25 C 16.066406 -19.601562 15.25 -19.78125 14.40625 -19.78125 C 13.570312 -19.78125 12.703125 -19.585938 11.796875 -19.203125 C 10.890625 -18.816406 10.128906 -18.296875 9.515625 -17.640625 Z M 9.515625 -6.375 "/></g></g><g style="fill:#ffffff;fill-opacity:1;"><g transform="translate(158.381233, 51.574533)"><path style="stroke:none" d="M 20.1875 -1.3125 C 18.207031 -0.207031 16.226562 0.34375 14.25 0.34375 C 12.269531 0.34375 10.539062 0.0351562 9.0625 -0.578125 C 7.582031 -1.203125 6.320312 -2.0625 5.28125 -3.15625 C 3.132812 -5.394531 2.0625 -8.304688 2.0625 -11.890625 C 2.0625 -15.597656 3.304688 -18.679688 5.796875 -21.140625 C 8.304688 -23.628906 11.515625 -24.875 15.421875 -24.875 C 16.617188 -24.875 17.796875 -24.71875 18.953125 -24.40625 L 18.953125 -34.8125 L 24.671875 -34.8125 L 24.671875 -9.828125 C 24.671875 -7.765625 24.765625 -6.410156 24.953125 -5.765625 C 25.148438 -5.128906 25.367188 -4.660156 25.609375 -4.359375 C 25.859375 -4.066406 26.164062 -3.789062 26.53125 -3.53125 L 22.140625 0.34375 C 21.335938 -0.0820312 20.6875 -0.632812 20.1875 -1.3125 Z M 15.34375 -5.015625 C 16.65625 -5.015625 17.859375 -5.265625 18.953125 -5.765625 L 18.953125 -18.71875 C 17.859375 -19.164062 16.671875 -19.390625 15.390625 -19.390625 C 14.117188 -19.390625 13.023438 -19.21875 12.109375 -18.875 C 11.203125 -18.53125 10.421875 -18.054688 9.765625 -17.453125 C 8.390625 -16.171875 7.703125 -14.507812 7.703125 -12.46875 C 7.703125 -10.25 8.328125 -8.476562 9.578125 -7.15625 C 10.921875 -5.726562 12.84375 -5.015625 15.34375 -5.015625 Z M 15.34375 -5.015625 "/></g></g><g style="fill:#ffffff;fill-opacity:1;"><g transform="translate(186.340316, 51.574533)"><path style="stroke:none" d="M 2.265625 -12 C 2.265625 -13.820312 2.578125 -15.507812 3.203125 -17.0625 C 3.828125 -18.625 4.707031 -19.992188 5.84375 -21.171875 C 8.269531 -23.640625 11.445312 -24.875 15.375 -24.875 C 18.6875 -24.875 21.347656 -23.773438 23.359375 -21.578125 C 25.335938 -19.460938 26.328125 -16.800781 26.328125 -13.59375 C 26.328125 -12.363281 26.234375 -11.523438 26.046875 -11.078125 C 24.492188 -10.640625 21.328125 -10.421875 16.546875 -10.421875 L 8.3125 -10.421875 C 8.71875 -8.753906 9.660156 -7.457031 11.140625 -6.53125 C 12.617188 -5.601562 14.539062 -5.140625 16.90625 -5.140625 C 19.382812 -5.140625 21.515625 -5.582031 23.296875 -6.46875 C 23.753906 -6.707031 24.101562 -6.925781 24.34375 -7.125 C 24.3125 -6.46875 24.269531 -5.796875 24.21875 -5.109375 L 23.96875 -1.46875 C 22.78125 -0.65625 20.863281 -0.0976562 18.21875 0.203125 C 17.4375 0.296875 16.691406 0.34375 15.984375 0.34375 C 12.023438 0.34375 8.753906 -0.804688 6.171875 -3.109375 C 3.566406 -5.429688 2.265625 -8.394531 2.265625 -12 Z M 20.109375 -14.953125 C 19.472656 -18.296875 17.648438 -19.96875 14.640625 -19.96875 C 12.273438 -19.96875 10.476562 -18.945312 9.25 -16.90625 C 8.875 -16.289062 8.585938 -15.609375 8.390625 -14.859375 C 8.765625 -14.835938 9.222656 -14.820312 9.765625 -14.8125 L 11.5 -14.8125 C 12.070312 -14.789062 12.625 -14.78125 13.15625 -14.78125 L 14.484375 -14.78125 C 15.273438 -14.78125 16.050781 -14.789062 16.8125 -14.8125 L 18.734375 -14.875 C 19.242188 -14.894531 19.703125 -14.921875 20.109375 -14.953125 Z M 20.109375 -14.953125 "/></g></g><g style="fill:#ffffff;fill-opacity:1;"><g transform="translate(214.299399, 51.574533)"><path style="stroke:none" d="M 11.65625 0.34375 C 7.257812 0.34375 3.953125 -0.457031 1.734375 -2.0625 C 1.765625 -2.519531 1.8125 -3.046875 1.875 -3.640625 L 2.078125 -5.328125 C 2.203125 -6.429688 2.28125 -7.117188 2.3125 -7.390625 C 2.34375 -7.660156 2.363281 -7.804688 2.375 -7.828125 C 2.394531 -7.859375 2.519531 -7.738281 2.75 -7.46875 C 2.988281 -7.195312 3.429688 -6.863281 4.078125 -6.46875 C 4.734375 -6.082031 5.492188 -5.738281 6.359375 -5.4375 C 8.210938 -4.800781 10.140625 -4.484375 12.140625 -4.484375 C 14.835938 -4.484375 16.1875 -5.378906 16.1875 -7.171875 C 16.1875 -7.742188 15.929688 -8.171875 15.421875 -8.453125 C 14.503906 -8.921875 13.148438 -9.273438 11.359375 -9.515625 C 9.578125 -9.753906 8.117188 -10.109375 6.984375 -10.578125 C 5.847656 -11.046875 4.921875 -11.609375 4.203125 -12.265625 C 2.878906 -13.492188 2.21875 -15.101562 2.21875 -17.09375 C 2.21875 -19.53125 3.148438 -21.441406 5.015625 -22.828125 C 6.867188 -24.191406 9.429688 -24.875 12.703125 -24.875 C 15.941406 -24.875 18.707031 -23.957031 21 -22.125 C 20.894531 -21.71875 20.78125 -21.328125 20.65625 -20.953125 C 20.289062 -19.921875 20.023438 -19.179688 19.859375 -18.734375 L 19.3125 -17.359375 C 19.28125 -17.234375 19.257812 -17.171875 19.25 -17.171875 C 19.21875 -17.171875 19.09375 -17.332031 18.875 -17.65625 C 17.894531 -18.789062 16.367188 -19.539062 14.296875 -19.90625 C 13.660156 -20.03125 13.003906 -20.09375 12.328125 -20.09375 C 9.492188 -20.09375 8.078125 -19.234375 8.078125 -17.515625 C 8.078125 -16.929688 8.375 -16.484375 8.96875 -16.171875 C 10.070312 -15.578125 11.585938 -15.140625 13.515625 -14.859375 C 15.441406 -14.578125 16.898438 -14.195312 17.890625 -13.71875 C 18.890625 -13.25 19.691406 -12.675781 20.296875 -12 C 21.421875 -10.789062 21.984375 -9.179688 21.984375 -7.171875 C 21.984375 -4.972656 21.101562 -3.191406 19.34375 -1.828125 C 17.507812 -0.378906 14.945312 0.34375 11.65625 0.34375 Z M 11.65625 0.34375 "/></g></g><g style="fill:#ffffff;fill-opacity:1;"><g transform="translate(238.264323, 51.574533)"><path style="stroke:none" d="M 9.515625 -3.078125 C 9.515625 -1.742188 9.566406 -0.71875 9.671875 0 L 3.78125 0 L 3.78125 -33.40625 L 9.515625 -33.40625 L 9.515625 -12.9375 L 20.1875 -24.40625 L 27.125 -24.40625 L 17.921875 -14.71875 L 23.171875 -7.546875 C 24.304688 -5.734375 25.164062 -4.410156 25.75 -3.578125 L 27.28125 -1.40625 C 27.75 -0.789062 28.140625 -0.320312 28.453125 0 L 24.765625 0 C 23.390625 0 22.210938 0.113281 21.234375 0.34375 L 13.953125 -10.296875 L 9.515625 -5.578125 Z M 9.515625 -3.078125 "/></g></g></g></svg>